#!OML:ASF H:\Terrain\Patient Classification 1\Walking\liu\liu.ASF
:FULLY-SPECIFIED
:DEGREES
268
root 9.10511 17.2156 24.2359 11.1511 -4.77658 -4.36321
lowerback -4.15982 2.17144 0.528261
upperback -0.311612 2.78374 4.3377
thorax 1.81967 1.38226 4.33492
lowerneck -15.853 -3.92434 -13.2975
upperneck 17.4525 -4.38888 11.0379
head 8.59027 -1.86476 5.44992
rclavicle 5.41688e-014 3.49861e-014
rhumerus -21.8611 36.7862 -89.2235
rradius 42.6983
rwrist -23.9969
rhand -31.9032 -24.1705
rfingers 7.12502
rthumb -5.15527 -54.0877
lclavicle 5.41688e-014 3.49861e-014
lhumerus -50.657 -11.1037 94.4147
lradius 28.7812
lwrist 8.73701
lhand -18.2644 -24.5979
lfingers 7.12502
lthumb 8.01516 5.23014
rfemur -1.47392 4.7408 29.9872
rtibia 20.4495
rfoot -16.5894 1.27523
rtoes -21.305
lfemur -43.7845 5.14193 -15.7797
ltibia 30.7195
lfoot -17.3024 13.9145
ltoes -14.5799
269
root 9.11637 17.2015 24.4936 11.3073 -5.21219 -4.43517
lowerback -4.20346 2.20258 0.477781
upperback -1.23777 2.86283 4.37172
thorax 0.880431 1.4392 4.37668
lowerneck -12.5139 -3.38821 -13.6127
upperneck 16.8978 -4.03037 11.3334
head 7.76346 -1.7754 5.63921
rclavicle 7.55382e-015 7.95139e-015
rhumerus -21.8738 36.1652 -89.2809
rradius 43.0628
rwrist -17.7032
rhand -24.7291 -26.4416
rfingers 7.12502
rthumb 1.77322 -56.414
lclavicle 7.55382e-015 7.95139e-015
lhumerus -54.124 -9.62244 93.6755
lradius 28.3331
lwrist 7.85349
lhand -17.798 -24.4952
lfingers 7.12502
lthumb 8.46527 5.31512
rfemur 0.14603 4.69414 29.8109
rtibia 18.5892
rfoot -15.5645 1.72705
rtoes -21.5187
lfemur -44.1589 4.20337 -14.8711
ltibia 27.8424
lfoot -17.8593 13.4013
ltoes -14.0717
270
root 9.1308 17.1731 24.7516 11.4399 -5.73571 -4.92447
lowerback -4.54375 2.50592 0.809042
upperback -0.345235 3.20229 4.45628
thorax 1.9791 1.59203 4.34187
lowerneck -15.8574 -3.87903 -13.417
upperneck 17.6832 -4.38794 11.4003
head 8.67918 -1.83883 5.60694
rclavicle 8.64713e-015 3.4191e-014
rhumerus -18.6796 39.3141 -88.0333
rradius 44.1246
rwrist -22.5893
rhand -31.3576 -20.8895
rfingers 7.12502
rthumb -4.62842 -50.8189
lclavicle 8.64713e-015 3.4191e-014
lhumerus -53.5912 -8.99084 92.5493
lradius 27.5979
lwrist 7.65571
lhand -17.2866 -24.257
lfingers 7.12502
lthumb 8.9588 5.5328
rfemur 1.90358 4.79975 30
rtibia 16.8678
rfoot -14.5135 2.36551
rtoes -20.5921
lfemur -44.3918 2.95492 -13.1408
ltibia 25.1421
lfoot -18.185 13.1532
ltoes -12.9147
271
root 9.14815 17.1491 25.0183 11.4416 -6.37352 -5.11072
lowerback -4.2083 2.91054 1.04485
upperback -0.0200701 3.73292 4.27328
thorax 2.11757 1.85637 4.04136
lowerneck -18.0871 -4.19925 -13.0006
upperneck 18.4381 -4.70801 11.3752
head 9.3792 -1.90527 5.50765
rclavicle 3.90612e-014 2.8625e-014
rhumerus -16.2207 40.9689 -86.9701
rradius 44.9257
rwrist -24.6221
rhand -33.5623 -18.939
rfingers 7.12502
rthumb -6.75705 -48.8112
lclavicle 3.90612e-014 2.8625e-014
lhumerus -54.0812 -8.55542 91.3359
lradius 26.9507
lwrist 7.09589
lhand -16.8486 -24.057
lfingers 7.12502
lthumb 9.38145 5.71422
rfemur 3.85587 4.89561 29.7997
rtibia 15.0711
rfoot -13.4957 2.99169
rtoes -20.5798
lfemur -44.5143 1.34092 -11.4599
ltibia 22.8891
lfoot -18.2923 13.5721
ltoes -11.943
272
root 9.16263 17.1406 25.2802 11.5336 -6.81253 -5.13415
lowerback -5.88608 3.07583 0.964781
upperback 0.849647 3.85538 4.43432
thorax 3.93706 1.88926 4.41342
lowerneck -17.1198 -3.99542 -13.0761
upperneck 17.0986 -4.34649 10.9887
head 8.68837 -1.79726 5.38987
rclavicle -3.79679e-014 -1.35174e-014
rhumerus -12.914 42.6864 -84.6469
rradius 45.5506
rwrist -25.2868
rhand -34.3358 -18.3876
rfingers 7.12502
rthumb -7.50372 -48.2345
lclavicle -3.79679e-014 -1.35174e-014
lhumerus -54.0149 -7.04584 90.1354
lradius 25.9733
lwrist 5.53941
lhand -16.3578 -24.138
lfingers 7.12502
lthumb 9.85501 5.61141
rfemur 5.66021 4.96259 29.5231
rtibia 12.979
rfoot -12.3778 3.21614
rtoes -22.2134
lfemur -44.8716 -0.576465 -9.75205
ltibia 21.1967
lfoot -18.5579 14.6519
ltoes -12.3128
273
root 9.17998 17.1147 25.5354 11.6547 -7.01837 -5.59873
lowerback -3.88472 3.31488 1.53428
upperback -1.35413 4.32132 4.41773
thorax 0.551427 2.17088 3.86942
lowerneck -13.5468 -3.8293 -13.7489
upperneck 17.4782 -4.52467 11.3764
head 8.21611 -1.99094 5.635
rclavicle 2.89232e-014 1.27222e-014
rhumerus -16.7014 43.1653 -87.4636
rradius 46.3338
rwrist -24.9156
rhand -34.9364 -18.3122
rfingers 7.12502
rthumb -8.08339 -48.1376
lclavicle 2.89232e-014 1.27222e-014
lhumerus -59.2598 -6.64416 89.274
lradius 25.704
lwrist 4.47102
lhand -16.4367 -24.48
lfingers 7.12502
lthumb 9.77889 5.27298
rfemur 7.52514 4.93837 29.7476
rtibia 10.8389
rfoot -11.0918 3.53939
rtoes -22.9095
lfemur -45.373 -2.44811 -7.55952
ltibia 19.9003
lfoot -18.4852 16.2597
ltoes -13.4563
